REM DIRINDEX 1\2\4,1\2\5,1\2\6,1\3\7,1\3\8
REM DIRNAME folder01,folder02,folder03,folder04,folder05,folder06,folder07,folder08
TITLE ""
FILE "038_Proficiency Test03.mp3" MP3
  TRACK 01 AUDIO
    TITLE "0:"
    INDEX 01 00:00:00
  TRACK 02 AUDIO
    TITLE "8:cjc128_3926"
    INDEX 01 00:00:23
  TRACK 03 AUDIO
    TITLE "0:"
    INDEX 01 00:02:43
  TRACK 04 AUDIO
    TITLE "8:cjc128_3927"
    INDEX 01 00:03:08
  TRACK 05 AUDIO
    TITLE "0:"
    INDEX 01 00:05:14
  TRACK 06 AUDIO
    TITLE "7:cjc128_3928"
    INDEX 01 00:05:73
  TRACK 07 AUDIO
    TITLE "0:"
    INDEX 01 00:09:00
  TRACK 08 AUDIO
    TITLE "8:cjc128_3929"
    INDEX 01 00:13:04
  TRACK 09 AUDIO
    TITLE "0:"
    INDEX 01 00:15:09
  TRACK 10 AUDIO
    TITLE "7:cjc128_3930"
    INDEX 01 00:16:06
  TRACK 11 AUDIO
    TITLE "0:"
    INDEX 01 00:19:09
  TRACK 12 AUDIO
    TITLE "8:cjc128_3931"
    INDEX 01 00:22:52
  TRACK 13 AUDIO
    TITLE "0:"
    INDEX 01 00:24:63
  TRACK 14 AUDIO
    TITLE "7:cjc128_3932"
    INDEX 01 00:25:54
  TRACK 15 AUDIO
    TITLE "0:"
    INDEX 01 00:28:60
  TRACK 16 AUDIO
    TITLE "8:cjc128_3933"
    INDEX 01 00:32:15
  TRACK 17 AUDIO
    TITLE "0:"
    INDEX 01 00:34:24
  TRACK 18 AUDIO
    TITLE "7:cjc128_3934"
    INDEX 01 00:35:02
  TRACK 19 AUDIO
    TITLE "0:"
    INDEX 01 00:39:07
  TRACK 20 AUDIO
    TITLE "8:cjc128_3935"
    INDEX 01 00:43:62
  TRACK 21 AUDIO
    TITLE "0:"
    INDEX 01 00:45:63
  TRACK 22 AUDIO
    TITLE "7:cjc128_3936"
    INDEX 01 00:46:66
  TRACK 23 AUDIO
    TITLE "0:"
    INDEX 01 00:49:65
  TRACK 24 AUDIO
    TITLE "8:cjc128_3937"
    INDEX 01 00:53:23
  TRACK 25 AUDIO
    TITLE "0:"
    INDEX 01 00:55:30
  TRACK 26 AUDIO
    TITLE "7:cjc128_3938"
    INDEX 01 00:56:10
  TRACK 27 AUDIO
    TITLE "0:"
    INDEX 01 00:59:06
  TRACK 28 AUDIO
    TITLE "8:cjc128_3939"
    INDEX 01 01:02:34
  TRACK 29 AUDIO
    TITLE "0:"
    INDEX 01 01:04:15
  TRACK 30 AUDIO
    TITLE "7:cjc128_3940"
    INDEX 01 01:04:68
  TRACK 31 AUDIO
    TITLE "0:"
    INDEX 01 01:08:15
